<mxfile host="app.diagrams.net" modified="2021-12-22T10:09:03.115Z" agent="5.0 (Windows NT 10.0; Win64; x64) AppleWebKit/537.36 (KHTML, like Gecko) Chrome/77.0.3865.90 Safari/537.36" etag="eR6pUVjnsZAL4L5QeP3D" version="16.0.3" type="github">
  <diagram id="GOAl-zBpsiIDf3_gvZNT" name="Page-1">
    <mxGraphModel dx="1422" dy="762" grid="1" gridSize="10" guides="1" tooltips="1" connect="1" arrows="1" fold="1" page="1" pageScale="1" pageWidth="827" pageHeight="1169" math="0" shadow="0">
      <root>
        <mxCell id="0" />
        <mxCell id="1" parent="0" />
        <mxCell id="iTaLrEpqWccCG17tqV0h-7" style="edgeStyle=orthogonalEdgeStyle;curved=1;rounded=0;orthogonalLoop=1;jettySize=auto;html=1;exitX=0.5;exitY=1;exitDx=0;exitDy=0;entryX=0.5;entryY=0;entryDx=0;entryDy=0;" edge="1" parent="1" source="A2-fFQgZgrquBd-zmQ_X-1" target="A2-fFQgZgrquBd-zmQ_X-2">
          <mxGeometry relative="1" as="geometry" />
        </mxCell>
        <mxCell id="A2-fFQgZgrquBd-zmQ_X-1" value="PBL" style="rounded=1;whiteSpace=wrap;html=1;" parent="1" vertex="1">
          <mxGeometry x="170" y="50" width="120" height="60" as="geometry" />
        </mxCell>
        <mxCell id="iTaLrEpqWccCG17tqV0h-8" style="edgeStyle=orthogonalEdgeStyle;curved=1;rounded=0;orthogonalLoop=1;jettySize=auto;html=1;exitX=0.5;exitY=0;exitDx=0;exitDy=0;entryX=0;entryY=0.5;entryDx=0;entryDy=0;" edge="1" parent="1" source="A2-fFQgZgrquBd-zmQ_X-2" target="iTaLrEpqWccCG17tqV0h-2">
          <mxGeometry relative="1" as="geometry" />
        </mxCell>
        <mxCell id="iTaLrEpqWccCG17tqV0h-19" value="if XBL failed" style="edgeLabel;html=1;align=center;verticalAlign=middle;resizable=0;points=[];" vertex="1" connectable="0" parent="iTaLrEpqWccCG17tqV0h-8">
          <mxGeometry y="-10" relative="1" as="geometry">
            <mxPoint as="offset" />
          </mxGeometry>
        </mxCell>
        <mxCell id="iTaLrEpqWccCG17tqV0h-10" style="edgeStyle=orthogonalEdgeStyle;curved=1;rounded=0;orthogonalLoop=1;jettySize=auto;html=1;exitX=0.5;exitY=1;exitDx=0;exitDy=0;entryX=0.5;entryY=0;entryDx=0;entryDy=0;" edge="1" parent="1" source="A2-fFQgZgrquBd-zmQ_X-2" target="A2-fFQgZgrquBd-zmQ_X-3">
          <mxGeometry relative="1" as="geometry" />
        </mxCell>
        <mxCell id="A2-fFQgZgrquBd-zmQ_X-2" value="XBL" style="rounded=1;whiteSpace=wrap;html=1;" parent="1" vertex="1">
          <mxGeometry x="110" y="220" width="120" height="60" as="geometry" />
        </mxCell>
        <mxCell id="iTaLrEpqWccCG17tqV0h-11" style="edgeStyle=orthogonalEdgeStyle;curved=1;rounded=0;orthogonalLoop=1;jettySize=auto;html=1;exitX=0.5;exitY=1;exitDx=0;exitDy=0;entryX=0.5;entryY=0;entryDx=0;entryDy=0;" edge="1" parent="1" source="A2-fFQgZgrquBd-zmQ_X-3" target="iTaLrEpqWccCG17tqV0h-1">
          <mxGeometry relative="1" as="geometry" />
        </mxCell>
        <mxCell id="iTaLrEpqWccCG17tqV0h-12" style="edgeStyle=orthogonalEdgeStyle;curved=1;rounded=0;orthogonalLoop=1;jettySize=auto;html=1;exitX=0.5;exitY=0;exitDx=0;exitDy=0;entryX=0;entryY=0.5;entryDx=0;entryDy=0;" edge="1" parent="1" source="A2-fFQgZgrquBd-zmQ_X-3" target="iTaLrEpqWccCG17tqV0h-3">
          <mxGeometry relative="1" as="geometry">
            <Array as="points">
              <mxPoint x="170" y="340" />
              <mxPoint x="380" y="340" />
              <mxPoint x="380" y="390" />
            </Array>
          </mxGeometry>
        </mxCell>
        <mxCell id="iTaLrEpqWccCG17tqV0h-18" value="if UEFI failed" style="edgeLabel;html=1;align=center;verticalAlign=middle;resizable=0;points=[];" vertex="1" connectable="0" parent="iTaLrEpqWccCG17tqV0h-12">
          <mxGeometry x="0.0063" y="1" relative="1" as="geometry">
            <mxPoint as="offset" />
          </mxGeometry>
        </mxCell>
        <mxCell id="A2-fFQgZgrquBd-zmQ_X-3" value="UEFI" style="rounded=1;whiteSpace=wrap;html=1;" parent="1" vertex="1">
          <mxGeometry x="110" y="360" width="120" height="60" as="geometry" />
        </mxCell>
        <mxCell id="iTaLrEpqWccCG17tqV0h-16" style="edgeStyle=orthogonalEdgeStyle;curved=1;rounded=0;orthogonalLoop=1;jettySize=auto;html=1;exitX=0.5;exitY=0;exitDx=0;exitDy=0;entryX=0;entryY=0.5;entryDx=0;entryDy=0;" edge="1" parent="1" source="iTaLrEpqWccCG17tqV0h-1" target="iTaLrEpqWccCG17tqV0h-4">
          <mxGeometry relative="1" as="geometry" />
        </mxCell>
        <mxCell id="iTaLrEpqWccCG17tqV0h-17" value="if ABL faield" style="edgeLabel;html=1;align=center;verticalAlign=middle;resizable=0;points=[];" vertex="1" connectable="0" parent="iTaLrEpqWccCG17tqV0h-16">
          <mxGeometry x="0.1911" y="-5" relative="1" as="geometry">
            <mxPoint as="offset" />
          </mxGeometry>
        </mxCell>
        <mxCell id="iTaLrEpqWccCG17tqV0h-21" value="" style="edgeStyle=orthogonalEdgeStyle;curved=1;rounded=0;orthogonalLoop=1;jettySize=auto;html=1;" edge="1" parent="1" source="iTaLrEpqWccCG17tqV0h-1" target="iTaLrEpqWccCG17tqV0h-20">
          <mxGeometry relative="1" as="geometry" />
        </mxCell>
        <mxCell id="iTaLrEpqWccCG17tqV0h-1" value="ABL" style="rounded=1;whiteSpace=wrap;html=1;" vertex="1" parent="1">
          <mxGeometry x="110" y="510" width="120" height="60" as="geometry" />
        </mxCell>
        <mxCell id="iTaLrEpqWccCG17tqV0h-9" style="edgeStyle=orthogonalEdgeStyle;curved=1;rounded=0;orthogonalLoop=1;jettySize=auto;html=1;exitX=0.5;exitY=1;exitDx=0;exitDy=0;entryX=0.5;entryY=0;entryDx=0;entryDy=0;" edge="1" parent="1" source="iTaLrEpqWccCG17tqV0h-2" target="A2-fFQgZgrquBd-zmQ_X-3">
          <mxGeometry relative="1" as="geometry" />
        </mxCell>
        <mxCell id="iTaLrEpqWccCG17tqV0h-2" value="XBL_bak" style="rounded=1;whiteSpace=wrap;html=1;" vertex="1" parent="1">
          <mxGeometry x="430" y="220" width="120" height="60" as="geometry" />
        </mxCell>
        <mxCell id="iTaLrEpqWccCG17tqV0h-15" style="edgeStyle=orthogonalEdgeStyle;curved=1;rounded=0;orthogonalLoop=1;jettySize=auto;html=1;exitX=0;exitY=0.5;exitDx=0;exitDy=0;entryX=0.5;entryY=0;entryDx=0;entryDy=0;" edge="1" parent="1" source="iTaLrEpqWccCG17tqV0h-3" target="iTaLrEpqWccCG17tqV0h-1">
          <mxGeometry relative="1" as="geometry">
            <Array as="points">
              <mxPoint x="420" y="460" />
              <mxPoint x="170" y="460" />
            </Array>
          </mxGeometry>
        </mxCell>
        <mxCell id="iTaLrEpqWccCG17tqV0h-3" value="UEFI_bak" style="rounded=1;whiteSpace=wrap;html=1;" vertex="1" parent="1">
          <mxGeometry x="420" y="360" width="120" height="60" as="geometry" />
        </mxCell>
        <mxCell id="iTaLrEpqWccCG17tqV0h-22" style="edgeStyle=orthogonalEdgeStyle;curved=1;rounded=0;orthogonalLoop=1;jettySize=auto;html=1;exitX=0.5;exitY=1;exitDx=0;exitDy=0;entryX=0.5;entryY=0;entryDx=0;entryDy=0;" edge="1" parent="1" source="iTaLrEpqWccCG17tqV0h-4" target="iTaLrEpqWccCG17tqV0h-20">
          <mxGeometry relative="1" as="geometry" />
        </mxCell>
        <mxCell id="iTaLrEpqWccCG17tqV0h-4" value="ABL_bak" style="rounded=1;whiteSpace=wrap;html=1;" vertex="1" parent="1">
          <mxGeometry x="414" y="510" width="120" height="60" as="geometry" />
        </mxCell>
        <mxCell id="iTaLrEpqWccCG17tqV0h-34" value="" style="edgeStyle=orthogonalEdgeStyle;curved=1;rounded=0;orthogonalLoop=1;jettySize=auto;html=1;" edge="1" parent="1" source="iTaLrEpqWccCG17tqV0h-20" target="iTaLrEpqWccCG17tqV0h-33">
          <mxGeometry relative="1" as="geometry" />
        </mxCell>
        <mxCell id="iTaLrEpqWccCG17tqV0h-20" value="kernel" style="rounded=1;whiteSpace=wrap;html=1;" vertex="1" parent="1">
          <mxGeometry x="110" y="650" width="120" height="60" as="geometry" />
        </mxCell>
        <mxCell id="iTaLrEpqWccCG17tqV0h-33" value="system" style="rounded=1;whiteSpace=wrap;html=1;" vertex="1" parent="1">
          <mxGeometry x="110" y="790" width="120" height="60" as="geometry" />
        </mxCell>
        <mxCell id="iTaLrEpqWccCG17tqV0h-36" style="edgeStyle=orthogonalEdgeStyle;curved=1;rounded=0;orthogonalLoop=1;jettySize=auto;html=1;exitX=0.5;exitY=1;exitDx=0;exitDy=0;entryX=0.5;entryY=0;entryDx=0;entryDy=0;" edge="1" parent="1" source="iTaLrEpqWccCG17tqV0h-38" target="iTaLrEpqWccCG17tqV0h-43">
          <mxGeometry relative="1" as="geometry" />
        </mxCell>
        <mxCell id="iTaLrEpqWccCG17tqV0h-37" style="edgeStyle=orthogonalEdgeStyle;curved=1;rounded=0;orthogonalLoop=1;jettySize=auto;html=1;exitX=0.5;exitY=1;exitDx=0;exitDy=0;fillColor=#00FF00;strokeColor=#00CC00;" edge="1" parent="1" source="iTaLrEpqWccCG17tqV0h-38" target="iTaLrEpqWccCG17tqV0h-63">
          <mxGeometry relative="1" as="geometry" />
        </mxCell>
        <mxCell id="iTaLrEpqWccCG17tqV0h-38" value="PBL" style="rounded=1;whiteSpace=wrap;html=1;" vertex="1" parent="1">
          <mxGeometry x="180" y="1550" width="120" height="60" as="geometry" />
        </mxCell>
        <mxCell id="iTaLrEpqWccCG17tqV0h-39" style="edgeStyle=orthogonalEdgeStyle;curved=1;rounded=0;orthogonalLoop=1;jettySize=auto;html=1;exitX=0.5;exitY=0;exitDx=0;exitDy=0;entryX=0;entryY=0.5;entryDx=0;entryDy=0;" edge="1" parent="1" source="iTaLrEpqWccCG17tqV0h-43" target="iTaLrEpqWccCG17tqV0h-56">
          <mxGeometry relative="1" as="geometry" />
        </mxCell>
        <mxCell id="iTaLrEpqWccCG17tqV0h-40" value="if XBL failed" style="edgeLabel;html=1;align=center;verticalAlign=middle;resizable=0;points=[];" vertex="1" connectable="0" parent="iTaLrEpqWccCG17tqV0h-39">
          <mxGeometry y="-10" relative="1" as="geometry">
            <mxPoint as="offset" />
          </mxGeometry>
        </mxCell>
        <mxCell id="iTaLrEpqWccCG17tqV0h-41" style="edgeStyle=orthogonalEdgeStyle;curved=1;rounded=0;orthogonalLoop=1;jettySize=auto;html=1;exitX=0.5;exitY=1;exitDx=0;exitDy=0;entryX=0.5;entryY=0;entryDx=0;entryDy=0;" edge="1" parent="1" source="iTaLrEpqWccCG17tqV0h-43" target="iTaLrEpqWccCG17tqV0h-48">
          <mxGeometry relative="1" as="geometry" />
        </mxCell>
        <mxCell id="iTaLrEpqWccCG17tqV0h-42" style="edgeStyle=orthogonalEdgeStyle;curved=1;rounded=0;orthogonalLoop=1;jettySize=auto;html=1;exitX=0.5;exitY=1;exitDx=0;exitDy=0;entryX=0.5;entryY=0;entryDx=0;entryDy=0;fillColor=#00FF00;strokeColor=#00CC00;" edge="1" parent="1" source="iTaLrEpqWccCG17tqV0h-43" target="iTaLrEpqWccCG17tqV0h-63">
          <mxGeometry relative="1" as="geometry" />
        </mxCell>
        <mxCell id="iTaLrEpqWccCG17tqV0h-43" value="XBL" style="rounded=1;whiteSpace=wrap;html=1;" vertex="1" parent="1">
          <mxGeometry x="120" y="1720" width="120" height="60" as="geometry" />
        </mxCell>
        <mxCell id="iTaLrEpqWccCG17tqV0h-44" style="edgeStyle=orthogonalEdgeStyle;curved=1;rounded=0;orthogonalLoop=1;jettySize=auto;html=1;exitX=0.5;exitY=1;exitDx=0;exitDy=0;entryX=0.5;entryY=0;entryDx=0;entryDy=0;" edge="1" parent="1" source="iTaLrEpqWccCG17tqV0h-48" target="iTaLrEpqWccCG17tqV0h-53">
          <mxGeometry relative="1" as="geometry" />
        </mxCell>
        <mxCell id="iTaLrEpqWccCG17tqV0h-45" style="edgeStyle=orthogonalEdgeStyle;curved=1;rounded=0;orthogonalLoop=1;jettySize=auto;html=1;exitX=0.5;exitY=0;exitDx=0;exitDy=0;entryX=0;entryY=0.5;entryDx=0;entryDy=0;" edge="1" parent="1" source="iTaLrEpqWccCG17tqV0h-48" target="iTaLrEpqWccCG17tqV0h-59">
          <mxGeometry relative="1" as="geometry">
            <Array as="points">
              <mxPoint x="180" y="1840" />
              <mxPoint x="390" y="1840" />
              <mxPoint x="390" y="1890" />
            </Array>
          </mxGeometry>
        </mxCell>
        <mxCell id="iTaLrEpqWccCG17tqV0h-46" value="if UEFI failed" style="edgeLabel;html=1;align=center;verticalAlign=middle;resizable=0;points=[];" vertex="1" connectable="0" parent="iTaLrEpqWccCG17tqV0h-45">
          <mxGeometry x="0.0063" y="1" relative="1" as="geometry">
            <mxPoint as="offset" />
          </mxGeometry>
        </mxCell>
        <mxCell id="iTaLrEpqWccCG17tqV0h-47" style="edgeStyle=orthogonalEdgeStyle;curved=1;rounded=0;orthogonalLoop=1;jettySize=auto;html=1;exitX=0.5;exitY=1;exitDx=0;exitDy=0;entryX=0.5;entryY=1;entryDx=0;entryDy=0;strokeColor=#00CC00;" edge="1" parent="1" source="iTaLrEpqWccCG17tqV0h-48" target="iTaLrEpqWccCG17tqV0h-63">
          <mxGeometry relative="1" as="geometry">
            <mxPoint x="360" y="2170" as="targetPoint" />
          </mxGeometry>
        </mxCell>
        <mxCell id="iTaLrEpqWccCG17tqV0h-48" value="UEFI" style="rounded=1;whiteSpace=wrap;html=1;" vertex="1" parent="1">
          <mxGeometry x="120" y="1860" width="120" height="60" as="geometry" />
        </mxCell>
        <mxCell id="iTaLrEpqWccCG17tqV0h-49" style="edgeStyle=orthogonalEdgeStyle;curved=1;rounded=0;orthogonalLoop=1;jettySize=auto;html=1;exitX=0.5;exitY=0;exitDx=0;exitDy=0;entryX=0;entryY=0.5;entryDx=0;entryDy=0;" edge="1" parent="1" source="iTaLrEpqWccCG17tqV0h-53" target="iTaLrEpqWccCG17tqV0h-62">
          <mxGeometry relative="1" as="geometry" />
        </mxCell>
        <mxCell id="iTaLrEpqWccCG17tqV0h-50" value="if ABL faield" style="edgeLabel;html=1;align=center;verticalAlign=middle;resizable=0;points=[];" vertex="1" connectable="0" parent="iTaLrEpqWccCG17tqV0h-49">
          <mxGeometry x="0.1911" y="-5" relative="1" as="geometry">
            <mxPoint as="offset" />
          </mxGeometry>
        </mxCell>
        <mxCell id="iTaLrEpqWccCG17tqV0h-51" value="" style="edgeStyle=orthogonalEdgeStyle;curved=1;rounded=0;orthogonalLoop=1;jettySize=auto;html=1;" edge="1" parent="1" source="iTaLrEpqWccCG17tqV0h-53" target="iTaLrEpqWccCG17tqV0h-65">
          <mxGeometry relative="1" as="geometry" />
        </mxCell>
        <mxCell id="iTaLrEpqWccCG17tqV0h-52" style="edgeStyle=orthogonalEdgeStyle;curved=1;rounded=0;orthogonalLoop=1;jettySize=auto;html=1;exitX=0.5;exitY=1;exitDx=0;exitDy=0;entryX=0.5;entryY=1;entryDx=0;entryDy=0;strokeColor=#00CC00;" edge="1" parent="1" source="iTaLrEpqWccCG17tqV0h-53" target="iTaLrEpqWccCG17tqV0h-63">
          <mxGeometry relative="1" as="geometry">
            <mxPoint x="360" y="2180" as="targetPoint" />
          </mxGeometry>
        </mxCell>
        <mxCell id="iTaLrEpqWccCG17tqV0h-53" value="ABL" style="rounded=1;whiteSpace=wrap;html=1;" vertex="1" parent="1">
          <mxGeometry x="120" y="2010" width="120" height="60" as="geometry" />
        </mxCell>
        <mxCell id="iTaLrEpqWccCG17tqV0h-54" style="edgeStyle=orthogonalEdgeStyle;curved=1;rounded=0;orthogonalLoop=1;jettySize=auto;html=1;exitX=0.5;exitY=1;exitDx=0;exitDy=0;entryX=0.5;entryY=0;entryDx=0;entryDy=0;" edge="1" parent="1" source="iTaLrEpqWccCG17tqV0h-56" target="iTaLrEpqWccCG17tqV0h-48">
          <mxGeometry relative="1" as="geometry" />
        </mxCell>
        <mxCell id="iTaLrEpqWccCG17tqV0h-55" style="edgeStyle=orthogonalEdgeStyle;curved=1;rounded=0;orthogonalLoop=1;jettySize=auto;html=1;exitX=0.5;exitY=1;exitDx=0;exitDy=0;entryX=0.5;entryY=0;entryDx=0;entryDy=0;fillColor=#00FF00;strokeColor=#00CC00;" edge="1" parent="1" source="iTaLrEpqWccCG17tqV0h-56" target="iTaLrEpqWccCG17tqV0h-63">
          <mxGeometry relative="1" as="geometry" />
        </mxCell>
        <mxCell id="iTaLrEpqWccCG17tqV0h-56" value="XBL_bak" style="rounded=1;whiteSpace=wrap;html=1;" vertex="1" parent="1">
          <mxGeometry x="440" y="1720" width="120" height="60" as="geometry" />
        </mxCell>
        <mxCell id="iTaLrEpqWccCG17tqV0h-57" style="edgeStyle=orthogonalEdgeStyle;curved=1;rounded=0;orthogonalLoop=1;jettySize=auto;html=1;exitX=0;exitY=0.5;exitDx=0;exitDy=0;entryX=0.5;entryY=0;entryDx=0;entryDy=0;" edge="1" parent="1" source="iTaLrEpqWccCG17tqV0h-59" target="iTaLrEpqWccCG17tqV0h-53">
          <mxGeometry relative="1" as="geometry">
            <Array as="points">
              <mxPoint x="430" y="1960" />
              <mxPoint x="180" y="1960" />
            </Array>
          </mxGeometry>
        </mxCell>
        <mxCell id="iTaLrEpqWccCG17tqV0h-58" style="edgeStyle=orthogonalEdgeStyle;curved=1;rounded=0;orthogonalLoop=1;jettySize=auto;html=1;exitX=0.5;exitY=1;exitDx=0;exitDy=0;entryX=0.5;entryY=0;entryDx=0;entryDy=0;fillColor=#00FF00;strokeColor=#00CC00;" edge="1" parent="1" source="iTaLrEpqWccCG17tqV0h-59" target="iTaLrEpqWccCG17tqV0h-63">
          <mxGeometry relative="1" as="geometry" />
        </mxCell>
        <mxCell id="iTaLrEpqWccCG17tqV0h-59" value="UEFI_bak" style="rounded=1;whiteSpace=wrap;html=1;" vertex="1" parent="1">
          <mxGeometry x="430" y="1860" width="120" height="60" as="geometry" />
        </mxCell>
        <mxCell id="iTaLrEpqWccCG17tqV0h-60" style="edgeStyle=orthogonalEdgeStyle;curved=1;rounded=0;orthogonalLoop=1;jettySize=auto;html=1;exitX=0.5;exitY=1;exitDx=0;exitDy=0;entryX=0.5;entryY=0;entryDx=0;entryDy=0;" edge="1" parent="1" source="iTaLrEpqWccCG17tqV0h-62" target="iTaLrEpqWccCG17tqV0h-65">
          <mxGeometry relative="1" as="geometry" />
        </mxCell>
        <mxCell id="iTaLrEpqWccCG17tqV0h-61" style="edgeStyle=orthogonalEdgeStyle;curved=1;rounded=0;orthogonalLoop=1;jettySize=auto;html=1;exitX=0.5;exitY=1;exitDx=0;exitDy=0;strokeColor=#00CC00;" edge="1" parent="1" source="iTaLrEpqWccCG17tqV0h-62">
          <mxGeometry relative="1" as="geometry">
            <mxPoint x="720" y="1940" as="targetPoint" />
          </mxGeometry>
        </mxCell>
        <mxCell id="iTaLrEpqWccCG17tqV0h-62" value="ABL_bak" style="rounded=1;whiteSpace=wrap;html=1;" vertex="1" parent="1">
          <mxGeometry x="424" y="2010" width="120" height="60" as="geometry" />
        </mxCell>
        <mxCell id="iTaLrEpqWccCG17tqV0h-63" value="misc" style="rounded=1;whiteSpace=wrap;html=1;fillColor=#00FF00;" vertex="1" parent="1">
          <mxGeometry x="680" y="1880" width="80" height="60" as="geometry" />
        </mxCell>
        <mxCell id="iTaLrEpqWccCG17tqV0h-64" value="" style="edgeStyle=orthogonalEdgeStyle;curved=1;rounded=0;orthogonalLoop=1;jettySize=auto;html=1;" edge="1" parent="1" source="iTaLrEpqWccCG17tqV0h-65" target="iTaLrEpqWccCG17tqV0h-67">
          <mxGeometry relative="1" as="geometry" />
        </mxCell>
        <mxCell id="iTaLrEpqWccCG17tqV0h-65" value="kernel" style="rounded=1;whiteSpace=wrap;html=1;" vertex="1" parent="1">
          <mxGeometry x="120" y="2150" width="120" height="60" as="geometry" />
        </mxCell>
        <mxCell id="iTaLrEpqWccCG17tqV0h-66" style="edgeStyle=orthogonalEdgeStyle;curved=1;rounded=0;orthogonalLoop=1;jettySize=auto;html=1;exitX=1;exitY=0.5;exitDx=0;exitDy=0;entryX=0.5;entryY=1;entryDx=0;entryDy=0;fillColor=#00FF00;strokeColor=#00CC00;" edge="1" parent="1" source="iTaLrEpqWccCG17tqV0h-67" target="iTaLrEpqWccCG17tqV0h-63">
          <mxGeometry relative="1" as="geometry" />
        </mxCell>
        <mxCell id="iTaLrEpqWccCG17tqV0h-67" value="system" style="rounded=1;whiteSpace=wrap;html=1;" vertex="1" parent="1">
          <mxGeometry x="120" y="2290" width="120" height="60" as="geometry" />
        </mxCell>
        <mxCell id="iTaLrEpqWccCG17tqV0h-68" value="misc" style="rounded=1;whiteSpace=wrap;html=1;fillColor=#00FF00;" vertex="1" parent="1">
          <mxGeometry x="420" y="680" width="80" height="60" as="geometry" />
        </mxCell>
      </root>
    </mxGraphModel>
  </diagram>
</mxfile>
